<svg aria-hidden="true" style="position: absolute; width: 0; height: 0; overflow: hidden;" version="1.1" xmlns="http://www.w3.org/2000/svg" xmlns:xlink="http://www.w3.org/1999/xlink">
<defs>
<symbol id="icon-check-1" viewBox="0 0 32 32">
<path d="M12 21.56l-4.627-4.627c-0.241-0.241-0.573-0.389-0.94-0.389-0.734 0-1.329 0.595-1.329 1.329 0 0.367 0.149 0.699 0.389 0.94l5.573 5.573c0.52 0.52 1.36 0.52 1.88 0l14.107-14.107c0.241-0.241 0.389-0.573 0.389-0.94 0-0.734-0.595-1.329-1.329-1.329-0.367 0-0.699 0.149-0.94 0.389v0l-13.173 13.16z"></path>
</symbol>
<symbol id="icon-close-2-1" viewBox="0 0 32 32">
<path d="M24.4 7.613c-0.24-0.241-0.573-0.39-0.94-0.39s-0.7 0.149-0.94 0.39l-0 0-6.52 6.507-6.52-6.52c-0.241-0.241-0.573-0.389-0.94-0.389-0.734 0-1.329 0.595-1.329 1.329 0 0.367 0.149 0.699 0.389 0.94l6.52 6.52-6.52 6.52c-0.241 0.241-0.389 0.573-0.389 0.94 0 0.734 0.595 1.329 1.329 1.329 0.367 0 0.699-0.149 0.94-0.389l6.52-6.52 6.52 6.52c0.241 0.241 0.573 0.389 0.94 0.389 0.734 0 1.329-0.595 1.329-1.329 0-0.367-0.149-0.699-0.389-0.94l-6.52-6.52 6.52-6.52c0.507-0.507 0.507-1.36 0-1.867z"></path>
</symbol>
<symbol id="icon-dashboard-1" viewBox="0 0 32 32">
<path d="M8.533 12.267h0.267c1.027 0 1.867 0.84 1.867 1.867v9.333c0 1.027-0.84 1.867-1.867 1.867h-0.267c-1.027 0-1.867-0.84-1.867-1.867v-9.333c0-1.027 0.84-1.867 1.867-1.867zM16 6.667c1.027 0 1.867 0.84 1.867 1.867v14.933c0 1.027-0.84 1.867-1.867 1.867s-1.867-0.84-1.867-1.867v-14.933c0-1.027 0.84-1.867 1.867-1.867zM23.467 17.333c1.027 0 1.867 0.84 1.867 1.867v4.267c0 1.027-0.84 1.867-1.867 1.867s-1.867-0.84-1.867-1.867v-4.267c0-1.027 0.84-1.867 1.867-1.867z"></path>
</symbol>
<symbol id="icon-person_pin_circle-1" viewBox="0 0 32 32">
<path d="M16 14.667c-1.773 0-5.333 0.893-5.333 2.667v0.213c1.293 1.493 3.2 2.453 5.333 2.453s4.040-0.96 5.333-2.453v-0.213c0-1.773-3.56-2.667-5.333-2.667zM16 13.333c1.467 0 2.667-1.2 2.667-2.667s-1.2-2.667-2.667-2.667-2.667 1.2-2.667 2.667 1.2 2.667 2.667 2.667zM16 2.667c5.6 0 10.667 4.293 10.667 10.933 0 4.24-3.267 9.227-9.787 14.973-0.507 0.44-1.267 0.44-1.773 0-6.507-5.747-9.773-10.733-9.773-14.973 0-6.64 5.067-10.933 10.667-10.933z"></path>
</symbol>
<symbol id="icon-users-1" viewBox="0 0 32 32">
<path d="M22 16c1.84 0 3.32-1.493 3.32-3.333s-1.48-3.333-3.32-3.333c-1.841 0-3.333 1.492-3.333 3.333s1.492 3.333 3.333 3.333v0zM12 14.667c2.213 0 3.987-1.787 3.987-4s-1.773-4-3.987-4c-2.213 0-4 1.787-4 4s1.787 4 4 4zM22 18.667c-2.44 0-7.333 1.227-7.333 3.667v1.667c0 0.733 0.6 1.333 1.333 1.333h12c0.733 0 1.333-0.6 1.333-1.333v-1.667c0-2.44-4.893-3.667-7.333-3.667zM12 17.333c-3.107 0-9.333 1.56-9.333 4.667v2c0 0.733 0.6 1.333 1.333 1.333h8v-3c0-1.133 0.44-3.12 3.16-4.627-1.16-0.24-2.28-0.373-3.16-0.373z"></path>
</symbol>
<symbol id="icon-Delete-1" viewBox="0 0 34 32">
<path fill="none"  stroke-linejoin="miter" stroke-linecap="butt" stroke-miterlimit="4" stroke-width="3.3684" d="M6.836 24.674l-0.857-17.095h21.726l-0.856 17.095c-0.138 2.68-2.344 4.8-5.046 4.8h-9.92c-2.701-0-4.908-2.12-5.045-4.788l-0-0.012zM12.211 6.737h9.263v-0.842c0-1.86-1.508-3.368-3.368-3.368v0h-2.526c-1.86 0-3.368 1.508-3.368 3.368v0 0.842z"></path>
<path fill="none"   stroke-linejoin="miter" stroke-linecap="round" stroke-miterlimit="4" stroke-width="3.3684" d="M2.947 7.158h27.789M20.632 14.737v6.316M13.053 14.737v6.316"></path>
</symbol>
<symbol id="icon-Edit-1" viewBox="0 0 30 32">
<path fill="none"  stroke-linejoin="miter" stroke-linecap="round" stroke-miterlimit="4" stroke-width="3.3684" d="M4.886 20.82l17.509-17.509 0.049-0.013c0.231-0.062 0.564-0.126 0.953-0.133 0.749-0.010 1.745 0.192 2.73 1.179 0.987 0.985 1.187 1.981 1.179 2.728-0.006 0.36-0.060 0.704-0.155 1.031l0.007-0.028-17.507 17.507-5.413 0.65 0.648-5.413z"></path>
<path fill="none"  stroke-linejoin="miter" stroke-linecap="butt" stroke-miterlimit="4" stroke-width="3.3684" d="M18.021 5.304l6.804 6.804"></path>
</symbol>
<symbol id="icon-Plus-1" viewBox="0 0 32 32">
<path fill="none" stroke-linejoin="round" stroke-linecap="round" stroke-miterlimit="4" stroke-width="1.5238" d="M16.381 4v24M4.381 16h24"></path>
</symbol>
</defs>
</svg>
